<?xml version="1.0" encoding="utf-8"?>
<!-- Generator: Adobe Illustrator 23.0.1, SVG Export Plug-In . SVG Version: 6.00 Build 0)  -->
<svg version="1.1" id="Capa_1" xmlns="http://www.w3.org/2000/svg" xmlns:xlink="http://www.w3.org/1999/xlink" x="0px" y="0px"
	 width="116.6px" height="14.8px" viewBox="0 0 116.6 14.8" style="enable-background:new 0 0 116.6 14.8;" xml:space="preserve">
<style type="text/css">
	.st0{fill:#FFFFFF;}
</style>
<g>
	<g>
		<path class="st0" d="M3.5,0.5L0,11.5h1.3l1.1-3.6h3.8l1.1,3.6h1.4l-3.5-11H3.5z M2.9,6.6l1-3.2C4,3.1,4.1,2.8,4.1,2.5
			c0.1-0.3,0.1-0.6,0.2-0.9h0.1c0.1,0.3,0.1,0.6,0.2,0.9s0.2,0.6,0.2,0.9l1,3.2C5.8,6.6,2.9,6.6,2.9,6.6z M16.2,3.9
			c-0.2-0.3-0.4-0.5-0.8-0.6c-0.3-0.1-0.7-0.2-1.3-0.2c-0.4,0-0.9,0.1-1.3,0.2S12,3.7,11.6,4V3.3h-1.3v8.1h1.3V5
			c0.5-0.2,1-0.4,1.4-0.5s0.8-0.2,1.1-0.2s0.5,0,0.7,0.1s0.3,0.2,0.4,0.3c0.1,0.2,0.2,0.4,0.2,0.6c0,0.3,0.1,0.6,0.1,0.9v5.2h1.3
			V6.3c0-0.5,0-0.9-0.1-1.3C16.5,4.5,16.4,4.2,16.2,3.9z M21.7,11.5H23v-11h-1.3V11.5z M31.3,3.9c-0.2-0.3-0.4-0.5-0.8-0.6
			c-0.3-0.1-0.7-0.2-1.3-0.2c-0.4,0-0.9,0.1-1.3,0.2c-0.4,0.2-0.9,0.4-1.3,0.6V3.3h-1.3v8.1h1.3V5c0.5-0.2,1-0.4,1.4-0.5
			s0.8-0.2,1.1-0.2c0.3,0,0.5,0,0.7,0.1s0.3,0.2,0.4,0.3s0.2,0.4,0.2,0.6c0,0.3,0.1,0.6,0.1,0.9v5.2h1.3V6.3c0-0.5,0-0.9-0.1-1.3
			C31.6,4.5,31.5,4.2,31.3,3.9z M38.8,3.3c-0.3-0.1-0.6-0.1-0.9-0.2C37.6,3.1,37.3,3,37,3c-0.5,0-0.9,0.1-1.3,0.2
			c-0.4,0.1-0.7,0.3-1,0.6S34.2,4.5,34,4.9c-0.2,0.5-0.2,1.1-0.2,1.8v1.4c0,0.6,0.1,1.1,0.2,1.6c0.1,0.4,0.3,0.8,0.6,1.1
			s0.6,0.5,0.9,0.6c0.4,0.1,0.8,0.2,1.2,0.2c0.5,0,0.9-0.1,1.3-0.2c0.4-0.1,0.7-0.3,1-0.4v0.4h1.3V0H39v3.3H38.8z M38.8,10
			c-0.3,0.1-0.6,0.3-0.9,0.4c-0.3,0.1-0.7,0.1-1,0.1c-0.7,0-1.1-0.2-1.4-0.6C35.1,9.6,35,9,35,8.2V6.8c0-0.5,0-1,0.1-1.3
			s0.2-0.6,0.4-0.8s0.4-0.3,0.7-0.4s0.5-0.1,0.9-0.1c0.1,0,0.2,0,0.4,0c0.1,0,0.3,0,0.4,0c0.2,0,0.3,0,0.5,0.1
			c0.2,0,0.3,0.1,0.5,0.1V10H38.8z M43.6,4V3.3h-1.3v8.1h1.3V5c0.2-0.1,0.3-0.2,0.5-0.3c0.2-0.1,0.4-0.2,0.7-0.2
			c0.2-0.1,0.5-0.1,0.8-0.1s0.5-0.1,0.8-0.1V3.1c-0.6,0-1.1,0.1-1.5,0.2C44.4,3.4,44,3.7,43.6,4z M52.5,3.8
			c-0.2-0.2-0.5-0.4-0.9-0.5S50.7,3.1,50,3.1c-0.3,0-0.6,0-0.9,0c-0.3,0-0.5,0.1-0.8,0.1c-0.2,0-0.4,0.1-0.6,0.1
			c-0.2,0-0.3,0.1-0.3,0.1v0.9c0.2,0,0.4,0,0.6-0.1s0.4,0,0.6-0.1c0.2,0,0.4,0,0.6,0c0.2,0,0.4,0,0.6,0c0.4,0,0.7,0,1,0.1
			c0.2,0,0.4,0.1,0.6,0.3c0.1,0.1,0.2,0.3,0.3,0.5s0.1,0.5,0.1,0.9v0.6h-1.2c-0.6,0-1.1,0-1.5,0.1S48.2,6.8,47.9,7s-0.6,0.4-0.7,0.8
			c-0.2,0.3-0.3,0.8-0.3,1.3v0.3c0,0.4,0.1,0.8,0.2,1c0.1,0.3,0.3,0.5,0.5,0.7s0.4,0.3,0.7,0.4c0.3,0.1,0.6,0.1,1,0.1
			c0.3,0,0.6,0,0.8-0.1c0.3,0,0.5-0.1,0.7-0.2c0.2-0.1,0.4-0.2,0.6-0.2c0.2-0.1,0.3-0.2,0.4-0.3v0.5H53V6c0-0.5,0-0.9-0.1-1.2
			C52.8,4.4,52.7,4.1,52.5,3.8z M51.7,10c-0.1,0.1-0.2,0.1-0.4,0.2c-0.2,0.1-0.3,0.1-0.5,0.2c-0.2,0.1-0.4,0.1-0.6,0.2
			c-0.2,0-0.5,0.1-0.7,0.1s-0.4,0-0.5-0.1c-0.2,0-0.3-0.1-0.4-0.2c-0.1-0.1-0.2-0.2-0.3-0.4c-0.1-0.1-0.1-0.3-0.1-0.6V9.1
			c0-0.3,0-0.6,0.1-0.8s0.2-0.4,0.4-0.5s0.4-0.2,0.7-0.2s0.7-0.1,1.1-0.1h1.2V10z M62.2,3.2c-0.2,0-0.4-0.1-0.7-0.1
			c-0.2,0-0.5,0-0.8,0c-0.5,0-1,0.1-1.4,0.2c-0.4,0.2-0.7,0.4-1,0.7c-0.3,0.3-0.5,0.7-0.6,1.2s-0.2,1-0.2,1.6V8
			c0,0.6,0.1,1.1,0.2,1.6c0.1,0.5,0.3,0.8,0.6,1.2c0.3,0.3,0.6,0.6,1,0.7c0.4,0.2,0.9,0.2,1.4,0.2c0.3,0,0.6,0,0.8,0s0.5,0,0.7-0.1
			c0.2,0,0.4-0.1,0.5-0.1s0.2-0.1,0.3-0.1v-1c-0.5,0.1-0.9,0.1-1.2,0.1s-0.6,0-0.8,0c-0.3,0-0.6,0-0.9-0.1c-0.3-0.1-0.5-0.2-0.6-0.4
			c-0.2-0.2-0.3-0.4-0.4-0.8C59,8.9,59,8.5,59,7.9V6.8c0-0.5,0-0.9,0.1-1.2c0.1-0.3,0.2-0.6,0.4-0.8s0.4-0.3,0.6-0.4
			c0.3-0.1,0.5-0.1,0.9-0.1c0.2,0,0.5,0,0.8,0s0.8,0.1,1.2,0.1v-1c-0.1,0-0.2,0-0.3-0.1C62.5,3.3,62.4,3.2,62.2,3.2z M67.8,3.1
			c-1.1,0-1.9,0.3-2.5,1c-0.6,0.6-0.9,1.5-0.9,2.7V8c0,0.6,0.1,1.1,0.2,1.6s0.4,0.8,0.6,1.2c0.3,0.3,0.6,0.6,1.1,0.7
			s0.9,0.2,1.5,0.2s1-0.1,1.5-0.2s0.8-0.4,1.1-0.7c0.3-0.3,0.5-0.7,0.6-1.2s0.2-1,0.2-1.6V6.8c0-1.2-0.3-2.1-0.9-2.7
			C69.8,3.4,68.9,3.1,67.8,3.1z M69.9,8c0,0.9-0.2,1.5-0.5,1.9s-0.9,0.6-1.6,0.6c-0.4,0-0.7,0-0.9-0.1c-0.3-0.1-0.5-0.2-0.6-0.5
			c-0.2-0.2-0.3-0.5-0.4-0.8S65.8,8.4,65.8,8V6.8c0-0.9,0.2-1.5,0.5-1.9s0.9-0.6,1.6-0.6c0.4,0,0.7,0,0.9,0.1
			c0.3,0.1,0.5,0.2,0.6,0.5c0.2,0.2,0.3,0.5,0.4,0.8s0.1,0.7,0.1,1.1V8z M83.1,4.7c0-0.2-0.1-0.4-0.2-0.6s-0.2-0.4-0.4-0.5
			c-0.2-0.1-0.4-0.3-0.6-0.4c-0.3-0.1-0.6-0.1-1-0.1s-0.7,0.1-1.1,0.2C79.4,3.4,79,3.7,78.5,4c-0.2-0.3-0.4-0.5-0.6-0.6
			s-0.6-0.2-1.1-0.2c-0.4,0-0.9,0.1-1.3,0.2c-0.4,0.2-0.8,0.4-1.1,0.6V3.3h-1.3v8.1h1.3V5c0.1-0.1,0.3-0.2,0.5-0.3
			c0.2-0.1,0.3-0.2,0.5-0.2c0.2-0.1,0.4-0.1,0.5-0.2c0.2,0,0.4-0.1,0.5-0.1c0.3,0,0.5,0,0.6,0.1s0.3,0.2,0.3,0.4s0.1,0.3,0.1,0.6
			s0,0.5,0,0.8v5.4h1.3V6.1c0-0.2,0-0.4,0-0.6s0-0.4,0-0.6c0.3-0.2,0.7-0.4,1.1-0.5s0.7-0.2,0.9-0.2c0.3,0,0.5,0,0.7,0.1
			s0.3,0.2,0.4,0.4c0.1,0.2,0.1,0.3,0.1,0.6s0,0.5,0,0.8v5.4h1.3V6.1c0-0.2,0-0.4,0-0.7C83.2,5.2,83.2,5,83.1,4.7z M91.1,4
			c-0.2-0.3-0.5-0.5-0.9-0.7c-0.4-0.1-0.8-0.2-1.2-0.2c-0.4,0-0.8,0.1-1.2,0.2S87,3.6,86.6,3.9V3.3h-1.2v11.3h1.3v-3.1
			c0.1,0,0.3,0.1,0.4,0.1c0.2,0,0.3,0.1,0.5,0.1s0.3,0,0.5,0.1c0.2,0,0.3,0,0.4,0c0.5,0,0.9-0.1,1.3-0.2s0.8-0.3,1.1-0.6
			c0.3-0.3,0.5-0.7,0.7-1.2s0.3-1.2,0.3-1.9v-1c0-0.7-0.1-1.3-0.2-1.7C91.5,4.7,91.3,4.3,91.1,4z M90.5,7.7c0,0.6,0,1.1-0.1,1.5
			S90.2,9.8,90,10s-0.4,0.3-0.7,0.4c-0.3,0.1-0.5,0.1-0.9,0.1c-0.3,0-0.5,0-0.8-0.1c-0.3,0-0.6-0.1-0.9-0.2V4.9
			c0.2-0.1,0.4-0.2,0.6-0.3c0.2-0.1,0.4-0.1,0.5-0.2c0.2,0,0.3-0.1,0.5-0.1c0.1,0,0.3,0,0.4,0c0.3,0,0.6,0,0.8,0.1s0.4,0.2,0.6,0.4
			c0.1,0.2,0.3,0.5,0.3,0.8c0.1,0.3,0.1,0.8,0.1,1.2V7.7z M98.9,3.8c-0.2-0.2-0.5-0.4-0.9-0.5s-0.9-0.2-1.6-0.2c-0.3,0-0.6,0-0.9,0
			S95,3.2,94.7,3.2c-0.2,0-0.4,0.1-0.6,0.1s-0.3,0.1-0.3,0.1v0.9c0.2,0,0.4,0,0.6-0.1s0.4,0,0.6-0.1c0.2,0,0.4,0,0.6,0s0.4,0,0.6,0
			c0.4,0,0.7,0,1,0.1c0.2,0,0.4,0.1,0.6,0.3S98,4.8,98.1,5c0,0.2,0.1,0.5,0.1,0.9v0.6H97c-0.6,0-1.1,0-1.5,0.1
			C95,6.7,94.6,6.8,94.3,7c-0.3,0.2-0.6,0.4-0.7,0.8c-0.2,0.3-0.3,0.8-0.3,1.3v0.3c0,0.4,0.1,0.8,0.2,1c0.1,0.3,0.3,0.5,0.5,0.7
			s0.4,0.3,0.7,0.4c0.3,0.1,0.6,0.1,1,0.1c0.3,0,0.6,0,0.8-0.1c0.3,0,0.5-0.1,0.7-0.2c0.2-0.1,0.4-0.2,0.6-0.2s0.3-0.2,0.4-0.3v0.5
			h1.2V6c0-0.5,0-0.9-0.1-1.2S99.1,4.1,98.9,3.8z M98.2,10c-0.1,0.1-0.2,0.1-0.4,0.2c-0.2,0.1-0.3,0.1-0.5,0.2
			c-0.2,0.1-0.4,0.1-0.6,0.2s-0.5,0.1-0.7,0.1s-0.4,0-0.5-0.1c-0.2,0-0.3-0.1-0.4-0.2c-0.1-0.1-0.2-0.2-0.3-0.4
			c-0.1-0.1-0.1-0.3-0.1-0.6V9.1c0-0.3,0-0.6,0.1-0.8s0.2-0.4,0.4-0.5c0.2-0.1,0.4-0.2,0.7-0.2c0.3,0,0.7-0.1,1.1-0.1h1.2
			C98.2,7.5,98.2,10,98.2,10z M107.5,3.9c-0.2-0.3-0.4-0.5-0.8-0.6c-0.3-0.1-0.7-0.2-1.3-0.2c-0.4,0-0.9,0.1-1.3,0.2
			c-0.4,0.2-0.9,0.4-1.3,0.6V3.3h-1.3v8.1h1.3V5c0.5-0.2,1-0.4,1.4-0.5s0.8-0.2,1.1-0.2c0.3,0,0.5,0,0.7,0.1s0.3,0.2,0.4,0.3
			s0.2,0.4,0.2,0.6c0,0.3,0.1,0.6,0.1,0.9v5.2h1.3V6.3c0-0.5,0-0.9-0.1-1.3C107.8,4.5,107.7,4.2,107.5,3.9z M115.2,3.3l-1.5,4.6
			c-0.1,0.2-0.1,0.4-0.2,0.5c-0.1,0.2-0.1,0.3-0.2,0.5c0,0.2-0.1,0.3-0.1,0.5s-0.1,0.4-0.1,0.6c-0.1-0.2-0.1-0.4-0.2-0.6
			c-0.1-0.2-0.1-0.4-0.2-0.5c-0.1-0.2-0.1-0.3-0.2-0.5s-0.1-0.3-0.2-0.5l-1.6-4.6h-1.4l3.1,8.1l-0.2,0.6c-0.1,0.3-0.2,0.5-0.3,0.8
			s-0.2,0.4-0.3,0.5c-0.1,0.1-0.2,0.2-0.4,0.3c-0.1,0.1-0.3,0.1-0.5,0.1c-0.1,0-0.3,0-0.4,0s-0.2,0-0.3,0c-0.1,0-0.2,0-0.4,0
			c-0.1,0-0.3,0-0.4,0v1c0.1,0,0.3,0.1,0.6,0.1c0.3,0,0.6,0.1,0.9,0.1c0.4,0,0.8-0.1,1-0.2c0.3-0.1,0.5-0.3,0.7-0.5s0.4-0.5,0.5-0.8
			s0.3-0.7,0.4-1.1l3-8.9h-1.1V3.3z"/>
	</g>
</g>
</svg>
